{"accessors":[{"bufferView":0,"byteOffset":0,"componentType":5126,"count":1,"max":[0],"min":[0],"type":"SCALAR"},{"bufferView":1,"byteOffset":0,"componentType":5123,"count":3144,"type":"SCALAR"},{"bufferView":2,"byteOffset":0,"componentType":5126,"count":534,"max":[0.362444669008255,1.63581788539886,0.415087819099426],"min":[-0.40310755372047,1.3584258556366,-0.05806208401918],"type":"VEC3"},{"bufferView":3,"byteOffset":0,"componentType":5126,"count":534,"type":"VEC3"},{"bufferView":4,"byteOffset":0,"componentType":5126,"count":534,"type":"VEC2"},{"bufferView":5,"byteOffset":0,"componentType":5123,"count":840,"type":"SCALAR"},{"bufferView":6,"byteOffset":0,"componentType":5126,"count":162,"max":[0.289759635925293,1.6301177740097,0.405282288789749],"min":[-0.3344090282917,1.36345398426056,0.404133588075638],"type":"VEC3"},{"bufferView":7,"byteOffset":0,"componentType":5126,"count":162,"type":"VEC3"},{"bufferView":8,"byteOffset":0,"componentType":5126,"count":162,"type":"VEC2"}],"animations":[{"channels":[],"name":"Take 001","samplers":[]}],"asset":{"generator":"FBX2glTF v0.13.1","version":"2.0"},"bufferViews":[{"buffer":0,"byteLength":4,"byteOffset":0},{"buffer":0,"byteLength":6288,"byteOffset":4,"target":34963},{"buffer":0,"byteLength":6408,"byteOffset":6292,"target":34962},{"buffer":0,"byteLength":6408,"byteOffset":12700,"target":34962},{"buffer":0,"byteLength":4272,"byteOffset":19108,"target":34962},{"buffer":0,"byteLength":1680,"byteOffset":23380,"target":34963},{"buffer":0,"byteLength":1944,"byteOffset":25060,"target":34962},{"buffer":0,"byteLength":1944,"byteOffset":27004,"target":34962},{"buffer":0,"byteLength":1296,"byteOffset":28948,"target":34962}],"buffers":[{"byteLength":30244,"uri":"EYE_starshades.bin"}],"images":[{"name":"texture_starshades","uri":"texture_starshades.png"},{"name":"texture_starshades 1","uri":"texture_starshades.png"}],"materials":[{"alphaMode":"OPAQUE","doubleSided":false,"extras":{"fromFBX":{"isTruePBR":false,"shadingModel":"Lambert"}},"name":"frames1","pbrMetallicRoughness":{"baseColorFactor":[0.800000011920929,0.800000011920929,0.800000011920929,1],"baseColorTexture":{"index":0,"texCoord":0},"metallicFactor":0.200000002980232,"roughnessFactor":0.800000011920929}},{"alphaMode":"OPAQUE","doubleSided":false,"extras":{"fromFBX":{"isTruePBR":false,"shadingModel":"Lambert"}},"name":"starshades","pbrMetallicRoughness":{"baseColorFactor":[0.800000011920929,0.800000011920929,0.800000011920929,1],"baseColorTexture":{"index":1,"texCoord":0},"metallicFactor":0.200000002980232,"roughnessFactor":0.800000011920929}}],"meshes":[{"name":"star_frames","primitives":[{"attributes":{"NORMAL":3,"POSITION":2,"TEXCOORD_0":4},"indices":1,"material":0,"mode":4}]},{"name":"star_lens","primitives":[{"attributes":{"NORMAL":7,"POSITION":6,"TEXCOORD_0":8},"indices":5,"material":1,"mode":4}]}],"nodes":[{"children":[1,2],"name":"starshades1","rotation":[0,0,0,1],"scale":[1,1,1],"translation":[0,-1.51460385322571,-0.17848800122738]},{"mesh":0,"name":"star_frames","rotation":[0,0,0,1],"scale":[1,1,1],"translation":[0,0.0174123961478472,0]},{"mesh":1,"name":"star_lens","rotation":[0,0,0,1],"scale":[1,1,1],"translation":[0,0.0180241242051125,0]}],"samplers":[{}],"scene":0,"scenes":[{"name":"Root Scene","nodes":[0]}],"textures":[{"name":"file6","sampler":0,"source":0},{"name":"file5","sampler":0,"source":1}]}