{"accessors":[{"bufferView":0,"byteOffset":0,"componentType":5126,"count":1,"max":[0],"min":[0],"type":"SCALAR"},{"bufferView":1,"byteOffset":0,"componentType":5123,"count":5976,"type":"SCALAR"},{"bufferView":2,"byteOffset":0,"componentType":5126,"count":996,"max":[0.141285359859467,0.217703089118004,0.0154243465512991],"min":[-0.14097428321838,-0.21765227615833,-0.01550521794707],"type":"VEC3"},{"bufferView":3,"byteOffset":0,"componentType":5126,"count":996,"type":"VEC3"},{"bufferView":4,"byteOffset":0,"componentType":5126,"count":996,"type":"VEC2"},{"bufferView":5,"byteOffset":0,"componentType":5123,"count":60,"type":"SCALAR"},{"bufferView":6,"byteOffset":0,"componentType":5126,"count":21,"max":[0.00999999977648258,0,0.00951056554913521],"min":[-0.00999999977648,0,-0.00951056554914],"type":"VEC3"},{"bufferView":7,"byteOffset":0,"componentType":5126,"count":21,"type":"VEC3"},{"bufferView":8,"byteOffset":0,"componentType":5126,"count":21,"type":"VEC2"}],"animations":[{"channels":[],"name":"Take 001","samplers":[]}],"asset":{"generator":"FBX2glTF v0.13.1","version":"2.0"},"bufferViews":[{"buffer":0,"byteLength":4,"byteOffset":0},{"buffer":0,"byteLength":11952,"byteOffset":4,"target":34963},{"buffer":0,"byteLength":11952,"byteOffset":11956,"target":34962},{"buffer":0,"byteLength":11952,"byteOffset":23908,"target":34962},{"buffer":0,"byteLength":7968,"byteOffset":35860,"target":34962},{"buffer":0,"byteLength":120,"byteOffset":43828,"target":34963},{"buffer":0,"byteLength":252,"byteOffset":43948,"target":34962},{"buffer":0,"byteLength":252,"byteOffset":44200,"target":34962},{"buffer":0,"byteLength":168,"byteOffset":44452,"target":34962}],"buffers":[{"byteLength":44620,"uri":"EYE_monocle.bin"}],"images":[{"name":"texture_monocle","uri":"../textures/Resources/texture_monocle.png"}],"materials":[{"alphaMode":"OPAQUE","doubleSided":false,"extras":{"fromFBX":{"isTruePBR":false,"shadingModel":"Lambert"}},"name":"monocle2","pbrMetallicRoughness":{"baseColorFactor":[0.800000011920929,0.800000011920929,0.800000011920929,1],"baseColorTexture":{"index":0,"texCoord":0},"metallicFactor":0.200000002980232,"roughnessFactor":0.800000011920929}}],"meshes":[{"name":"monocle_frame","primitives":[{"attributes":{"NORMAL":3,"POSITION":2,"TEXCOORD_0":4},"indices":1,"material":0,"mode":4}]},{"name":"monocle_lens","primitives":[{"attributes":{"NORMAL":7,"POSITION":6,"TEXCOORD_0":8},"indices":5,"material":0,"mode":4}]}],"nodes":[{"children":[1,2],"name":"monocle","rotation":[0,0,0,1],"scale":[1,1,1],"translation":[0,0,0]},{"mesh":0,"name":"monocle_frame","rotation":[0,0,0,1],"scale":[1,1,1],"translation":[0,0,0]},{"mesh":1,"name":"monocle_lens","rotation":[0.696200788021088,0,0,0.717847108840942],"scale":[12.7706727981567,12.7706727981567,12.7706727981567],"translation":[-0.00017627715715,0.0763609260320663,-0.00152683258057]}],"samplers":[{}],"scene":0,"scenes":[{"name":"Root Scene","nodes":[0]}],"textures":[{"name":"file7","sampler":0,"source":0}]}