{"accessors":[{"bufferView":0,"byteOffset":0,"componentType":5126,"count":1,"max":[0],"min":[0],"type":"SCALAR"},{"bufferView":1,"byteOffset":0,"componentType":5123,"count":1584,"type":"SCALAR"},{"bufferView":2,"byteOffset":0,"componentType":5126,"count":266,"max":[0.350285410881042,1.58343172073364,0.402174174785614],"min":[-0.36513850092888,1.37781059741974,-0.36827051639557],"type":"VEC3"},{"bufferView":3,"byteOffset":0,"componentType":5126,"count":266,"type":"VEC3"},{"bufferView":4,"byteOffset":0,"componentType":5126,"count":266,"type":"VEC2"}],"animations":[{"channels":[],"name":"Take 001","samplers":[]}],"asset":{"generator":"FBX2glTF v0.13.1","version":"2.0"},"bufferViews":[{"buffer":0,"byteLength":4,"byteOffset":0},{"buffer":0,"byteLength":3168,"byteOffset":4,"target":34963},{"buffer":0,"byteLength":3192,"byteOffset":3172,"target":34962},{"buffer":0,"byteLength":3192,"byteOffset":6364,"target":34962},{"buffer":0,"byteLength":2128,"byteOffset":9556,"target":34962}],"buffers":[{"byteLength":11684,"uri":"EYE_eyepatch.bin"}],"images":[{"name":"texture_eyepatch","uri":"../textures/Resources/eyepatch textures/texture_eyepatch.png"}],"materials":[{"alphaMode":"OPAQUE","doubleSided":false,"extras":{"fromFBX":{"isTruePBR":false,"shadingModel":"Lambert"}},"name":"eyepatch","pbrMetallicRoughness":{"baseColorFactor":[0.800000011920929,0.800000011920929,0.800000011920929,1],"baseColorTexture":{"index":0,"texCoord":0},"metallicFactor":0.200000002980232,"roughnessFactor":0.800000011920929}}],"meshes":[{"name":"eyepatch1","primitives":[{"attributes":{"NORMAL":3,"POSITION":2,"TEXCOORD_0":4},"indices":1,"material":0,"mode":4}]}],"nodes":[{"mesh":0,"name":"eyepatch1","rotation":[0,0,0,1],"scale":[1,1,1],"translation":[-0.00004944919419,-1.4804847240448,-0.0170883089304]}],"samplers":[{}],"scene":0,"scenes":[{"name":"Root Scene","nodes":[0]}],"textures":[{"name":"file4","sampler":0,"source":0}]}