{"accessors":[{"bufferView":0,"byteOffset":0,"componentType":5126,"count":1,"max":[0],"min":[0],"type":"SCALAR"},{"bufferView":1,"byteOffset":0,"componentType":5123,"count":60,"type":"SCALAR"},{"bufferView":2,"byteOffset":0,"componentType":5126,"count":21,"max":[0.00999999977648258,0,0.00951056554913521],"min":[-0.00999999977648,0,-0.00951056554914],"type":"VEC3"},{"bufferView":3,"byteOffset":0,"componentType":5126,"count":21,"type":"VEC3"},{"bufferView":4,"byteOffset":0,"componentType":5126,"count":21,"type":"VEC2"},{"bufferView":5,"byteOffset":0,"componentType":5123,"count":1488,"type":"SCALAR"},{"bufferView":6,"byteOffset":0,"componentType":5126,"count":286,"max":[0.139705881476402,0.216125637292862,0.0225440356880426],"min":[-0.13939490914345,-0.45412611961365,-0.02254403568804],"type":"VEC3"},{"bufferView":7,"byteOffset":0,"componentType":5126,"count":286,"type":"VEC3"},{"bufferView":8,"byteOffset":0,"componentType":5126,"count":286,"type":"VEC2"}],"animations":[{"channels":[],"name":"Take 001","samplers":[]}],"asset":{"generator":"FBX2glTF v0.13.1","version":"2.0"},"bufferViews":[{"buffer":0,"byteLength":4,"byteOffset":0},{"buffer":0,"byteLength":120,"byteOffset":4,"target":34963},{"buffer":0,"byteLength":252,"byteOffset":124,"target":34962},{"buffer":0,"byteLength":252,"byteOffset":376,"target":34962},{"buffer":0,"byteLength":168,"byteOffset":628,"target":34962},{"buffer":0,"byteLength":2976,"byteOffset":796,"target":34963},{"buffer":0,"byteLength":3432,"byteOffset":3772,"target":34962},{"buffer":0,"byteLength":3432,"byteOffset":7204,"target":34962},{"buffer":0,"byteLength":2288,"byteOffset":10636,"target":34962}],"buffers":[{"byteLength":12924,"uri":"HANDHELD_magnifyingglass.bin"}],"images":[{"name":"texture_magnifying_glass","uri":"../textures/Resources/texture_magnifying_glass.png"}],"materials":[{"alphaMode":"OPAQUE","doubleSided":false,"extras":{"fromFBX":{"isTruePBR":false,"shadingModel":"Lambert"}},"name":"magnifying_glass","pbrMetallicRoughness":{"baseColorFactor":[0.800000011920929,0.800000011920929,0.800000011920929,1],"baseColorTexture":{"index":0,"texCoord":0},"metallicFactor":0.200000002980232,"roughnessFactor":0.800000011920929}}],"meshes":[{"name":"magnifying_glass_lens","primitives":[{"attributes":{"NORMAL":3,"POSITION":2,"TEXCOORD_0":4},"indices":1,"material":0,"mode":4}]},{"name":"magnifying_glass_handle","primitives":[{"attributes":{"NORMAL":7,"POSITION":6,"TEXCOORD_0":8},"indices":5,"material":0,"mode":4}]}],"nodes":[{"children":[1,2],"name":"magnifying_glass1","rotation":[0,0,0,1],"scale":[1,1,1],"translation":[0,0,0]},{"mesh":0,"name":"magnifying_glass_lens","rotation":[0.696200788021088,0,0,0.717847108840942],"scale":[12.7706727981567,12.7706727981567,12.7706727981567],"translation":[-0.00017627730267,0.0763609707355499,-0.00152681674808]},{"mesh":1,"name":"magnifying_glass_handle","rotation":[0,0,0,1],"scale":[1,1,1],"translation":[0,0,0]}],"samplers":[{}],"scene":0,"scenes":[{"name":"Root Scene","nodes":[0]}],"textures":[{"name":"file2","sampler":0,"source":0}]}