{"accessors":[{"bufferView":0,"byteOffset":0,"componentType":5126,"count":1,"max":[0],"min":[0],"type":"SCALAR"},{"bufferView":1,"byteOffset":0,"componentType":5123,"count":3552,"type":"SCALAR"},{"bufferView":2,"byteOffset":0,"componentType":5126,"count":705,"max":[0.428909718990326,2.89151477813721,0.442293971776962],"min":[-0.42925333976746,2.36542987823486,-0.4291261434555],"type":"VEC3"},{"bufferView":3,"byteOffset":0,"componentType":5126,"count":705,"type":"VEC3"},{"bufferView":4,"byteOffset":0,"componentType":5126,"count":705,"type":"VEC2"}],"animations":[{"channels":[],"name":"Take 001","samplers":[]}],"asset":{"generator":"FBX2glTF v0.13.1","version":"2.0"},"bufferViews":[{"buffer":0,"byteLength":4,"byteOffset":0},{"buffer":0,"byteLength":7104,"byteOffset":4,"target":34963},{"buffer":0,"byteLength":8460,"byteOffset":7108,"target":34962},{"buffer":0,"byteLength":8460,"byteOffset":15568,"target":34962},{"buffer":0,"byteLength":5640,"byteOffset":24028,"target":34962}],"buffers":[{"byteLength":29668,"uri":"HAT_froggy.bin"}],"images":[{"name":"texture_froggy_hat","uri":"texture_froggy_hat.png"}],"materials":[{"alphaMode":"OPAQUE","doubleSided":false,"extras":{"fromFBX":{"isTruePBR":false,"shadingModel":"Lambert"}},"name":"froggyhat","pbrMetallicRoughness":{"baseColorFactor":[0.800000011920929,0.800000011920929,0.800000011920929,1],"baseColorTexture":{"index":0,"texCoord":0},"metallicFactor":0.200000002980232,"roughnessFactor":0.800000011920929}}],"meshes":[{"name":"froggy_hat","primitives":[{"attributes":{"NORMAL":3,"POSITION":2,"TEXCOORD_0":4},"indices":1,"material":0,"mode":4}]}],"nodes":[{"mesh":0,"name":"froggy_hat","rotation":[-0.0943838134408,-0.00000046469484,0.00031338250846602,0.995535850524902],"scale":[1,1,1],"translation":[0.00163128040730953,-2.5830078125,0.48747506737709]}],"samplers":[{}],"scene":0,"scenes":[{"name":"Root Scene","nodes":[0]}],"textures":[{"name":"file3","sampler":0,"source":0}]}