{"accessors":[{"bufferView":0,"byteOffset":0,"componentType":5126,"count":1,"max":[0],"min":[0],"type":"SCALAR"},{"bufferView":1,"byteOffset":0,"componentType":5123,"count":2652,"type":"SCALAR"},{"bufferView":2,"byteOffset":0,"componentType":5126,"count":444,"max":[0.422690004110336,0.489271521568298,0.423581123352051],"min":[-0.45048391819,-0.4893225133419,-0.4236404299736],"type":"VEC3"},{"bufferView":3,"byteOffset":0,"componentType":5126,"count":444,"type":"VEC3"},{"bufferView":4,"byteOffset":0,"componentType":5126,"count":444,"type":"VEC2"},{"bufferView":5,"byteOffset":0,"componentType":5123,"count":1080,"type":"SCALAR"},{"bufferView":6,"byteOffset":0,"componentType":5126,"count":204,"max":[0.275922209024429,0.364352256059647,0.300367504358292],"min":[-0.31054642796516,-0.19429183006287,-0.28108513355255],"type":"VEC3"},{"bufferView":7,"byteOffset":0,"componentType":5126,"count":204,"type":"VEC3"},{"bufferView":8,"byteOffset":0,"componentType":5126,"count":204,"type":"VEC2"}],"animations":[{"channels":[],"name":"Take 001","samplers":[]}],"asset":{"generator":"FBX2glTF v0.13.1","version":"2.0"},"bufferViews":[{"buffer":0,"byteLength":4,"byteOffset":0},{"buffer":0,"byteLength":5304,"byteOffset":4,"target":34963},{"buffer":0,"byteLength":5328,"byteOffset":5308,"target":34962},{"buffer":0,"byteLength":5328,"byteOffset":10636,"target":34962},{"buffer":0,"byteLength":3552,"byteOffset":15964,"target":34962},{"buffer":0,"byteLength":2160,"byteOffset":19516,"target":34963},{"buffer":0,"byteLength":2448,"byteOffset":21676,"target":34962},{"buffer":0,"byteLength":2448,"byteOffset":24124,"target":34962},{"buffer":0,"byteLength":1632,"byteOffset":26572,"target":34962}],"buffers":[{"byteLength":28204,"uri":"HAT_wizard.bin"}],"images":[{"name":"texture_wizard_hat","uri":"texture_wizard_hat.png"}],"materials":[{"alphaMode":"OPAQUE","doubleSided":false,"extras":{"fromFBX":{"isTruePBR":false,"shadingModel":"Lambert"}},"name":"wizard_hat","pbrMetallicRoughness":{"baseColorFactor":[0.800000011920929,0.800000011920929,0.800000011920929,1],"baseColorTexture":{"index":0,"texCoord":0},"metallicFactor":0.200000002980232,"roughnessFactor":0.800000011920929}}],"meshes":[{"name":"wizard_hat_main","primitives":[{"attributes":{"NORMAL":3,"POSITION":2,"TEXCOORD_0":4},"indices":1,"material":0,"mode":4}]},{"name":"wizard_stars","primitives":[{"attributes":{"NORMAL":7,"POSITION":6,"TEXCOORD_0":8},"indices":5,"material":0,"mode":4}]}],"nodes":[{"children":[1,2],"name":"wizard_hat1","rotation":[0,0,0,1],"scale":[1,1,1],"translation":[0,0,0]},{"mesh":0,"name":"wizard_hat_main","rotation":[0,0,0,1],"scale":[1,1,1],"translation":[0,0,0]},{"mesh":1,"name":"wizard_stars","rotation":[0,0,0,1],"scale":[1,1,1],"translation":[0,0,0]}],"samplers":[{}],"scene":0,"scenes":[{"name":"Root Scene","nodes":[0]}],"textures":[{"name":"file8","sampler":0,"source":0}]}