{"accessors":[{"bufferView":0,"byteOffset":0,"componentType":5126,"count":1,"max":[0],"min":[0],"type":"SCALAR"},{"bufferView":1,"byteOffset":0,"componentType":5123,"count":8418,"type":"SCALAR"},{"bufferView":2,"byteOffset":0,"componentType":5126,"count":3199,"max":[0.326429575681686,0.294043719768524,0.472540438175201],"min":[-0.34664306044579,-0.29404112696648,-0.45506751537323],"type":"VEC3"},{"bufferView":3,"byteOffset":0,"componentType":5126,"count":3199,"type":"VEC3"},{"bufferView":4,"byteOffset":0,"componentType":5126,"count":3199,"type":"VEC2"}],"animations":[{"channels":[],"name":"Take 001","samplers":[]}],"asset":{"generator":"FBX2glTF v0.13.1","version":"2.0"},"bufferViews":[{"buffer":0,"byteLength":4,"byteOffset":0},{"buffer":0,"byteLength":16836,"byteOffset":4,"target":34963},{"buffer":0,"byteLength":38388,"byteOffset":16840,"target":34962},{"buffer":0,"byteLength":38388,"byteOffset":55228,"target":34962},{"buffer":0,"byteLength":25592,"byteOffset":93616,"target":34962}],"buffers":[{"byteLength":119208,"uri":"HAT_propellercap.bin"}],"images":[{"name":"texture_propeller_cap","uri":"texture_propeller_cap.png"}],"materials":[{"alphaMode":"OPAQUE","doubleSided":false,"extras":{"fromFBX":{"isTruePBR":false,"shadingModel":"Lambert"}},"name":"propeller_cap","pbrMetallicRoughness":{"baseColorFactor":[0.800000011920929,0.800000011920929,0.800000011920929,1],"baseColorTexture":{"index":0,"texCoord":0},"metallicFactor":0.200000002980232,"roughnessFactor":0.800000011920929}}],"meshes":[{"name":"propeller_cap1","primitives":[{"attributes":{"NORMAL":3,"POSITION":2,"TEXCOORD_0":4},"indices":1,"material":0,"mode":4}]}],"nodes":[{"mesh":0,"name":"propeller_cap1","rotation":[0,0,0,1],"scale":[1,1,1],"translation":[0,0,0]}],"samplers":[{}],"scene":0,"scenes":[{"name":"Root Scene","nodes":[0]}],"textures":[{"name":"file1","sampler":0,"source":0}]}