{"accessors":[{"bufferView":0,"byteOffset":0,"componentType":5126,"count":1,"max":[0],"min":[0],"type":"SCALAR"},{"bufferView":1,"byteOffset":0,"componentType":5123,"count":6990,"type":"SCALAR"},{"bufferView":2,"byteOffset":0,"componentType":5126,"count":1710,"max":[0.345887839794159,0.276293337345123,0.618716657161713],"min":[-0.34569284319878,-0.31558299064636,-0.57340443134308],"type":"VEC3"},{"bufferView":3,"byteOffset":0,"componentType":5126,"count":1710,"type":"VEC3"},{"bufferView":4,"byteOffset":0,"componentType":5126,"count":1710,"type":"VEC2"}],"animations":[{"channels":[],"name":"Take 001","samplers":[]}],"asset":{"generator":"FBX2glTF v0.13.1","version":"2.0"},"bufferViews":[{"buffer":0,"byteLength":4,"byteOffset":0},{"buffer":0,"byteLength":13980,"byteOffset":4,"target":34963},{"buffer":0,"byteLength":20520,"byteOffset":13984,"target":34962},{"buffer":0,"byteLength":20520,"byteOffset":34504,"target":34962},{"buffer":0,"byteLength":13680,"byteOffset":55024,"target":34962}],"buffers":[{"byteLength":68704,"uri":"HAT_detective.bin"}],"images":[{"name":"texture_detective_hat","uri":"../textures/Resources/detective hat textures/texture_detective_hat.png"}],"materials":[{"alphaMode":"OPAQUE","doubleSided":false,"extras":{"fromFBX":{"isTruePBR":false,"shadingModel":"Lambert"}},"name":"detective_hat2","pbrMetallicRoughness":{"baseColorFactor":[0.800000011920929,0.800000011920929,0.800000011920929,1],"baseColorTexture":{"index":0,"texCoord":0},"metallicFactor":0.200000002980232,"roughnessFactor":0.800000011920929}}],"meshes":[{"name":"detective_hat","primitives":[{"attributes":{"NORMAL":3,"POSITION":2,"TEXCOORD_0":4},"indices":1,"material":0,"mode":4}]}],"nodes":[{"mesh":0,"name":"detective_hat","rotation":[0,0,0,1],"scale":[1,1,1],"translation":[0,0,0]}],"samplers":[{}],"scene":0,"scenes":[{"name":"Root Scene","nodes":[0]}],"textures":[{"name":"file14","sampler":0,"source":0}]}