{"accessors":[{"bufferView":0,"byteOffset":0,"componentType":5126,"count":1,"max":[0],"min":[0],"type":"SCALAR"},{"bufferView":1,"byteOffset":0,"componentType":5123,"count":10032,"type":"SCALAR"},{"bufferView":2,"byteOffset":0,"componentType":5126,"count":2379,"max":[0.458730459213257,0.477755635976791,0.451558291912079],"min":[-0.44727221131325,-0.47908270359039,-0.45101615786552],"type":"VEC3"},{"bufferView":3,"byteOffset":0,"componentType":5126,"count":2379,"type":"VEC3"},{"bufferView":4,"byteOffset":0,"componentType":5126,"count":2379,"type":"VEC2"}],"animations":[{"channels":[],"name":"Take 001","samplers":[]}],"asset":{"generator":"FBX2glTF v0.13.1","version":"2.0"},"bufferViews":[{"buffer":0,"byteLength":4,"byteOffset":0},{"buffer":0,"byteLength":20064,"byteOffset":4,"target":34963},{"buffer":0,"byteLength":28548,"byteOffset":20068,"target":34962},{"buffer":0,"byteLength":28548,"byteOffset":48616,"target":34962},{"buffer":0,"byteLength":19032,"byteOffset":77164,"target":34962}],"buffers":[{"byteLength":96196,"uri":"HAT_beanie.bin"}],"images":[{"name":"texture_beanie","uri":"texture_beanie.png"}],"materials":[{"alphaMode":"OPAQUE","doubleSided":false,"extras":{"fromFBX":{"isTruePBR":false,"shadingModel":"Lambert"}},"name":"beanie","pbrMetallicRoughness":{"baseColorFactor":[0.800000011920929,0.800000011920929,0.800000011920929,1],"baseColorTexture":{"index":0,"texCoord":0},"metallicFactor":0.200000002980232,"roughnessFactor":0.800000011920929}}],"meshes":[{"name":"beanie2","primitives":[{"attributes":{"NORMAL":3,"POSITION":2,"TEXCOORD_0":4},"indices":1,"material":0,"mode":4}]}],"nodes":[{"mesh":0,"name":"beanie2","rotation":[0,0,0,1],"scale":[1,1,1],"translation":[0,0,0]}],"samplers":[{}],"scene":0,"scenes":[{"name":"Root Scene","nodes":[0]}],"textures":[{"name":"file1","sampler":0,"source":0}]}