{"accessors":[{"bufferView":0,"byteOffset":0,"componentType":5126,"count":1,"max":[0],"min":[0],"type":"SCALAR"},{"bufferView":1,"byteOffset":0,"componentType":5123,"count":28632,"type":"SCALAR"},{"bufferView":2,"byteOffset":0,"componentType":5126,"count":5132,"max":[0.50832337141037,0.514812409877777,0.0251568891108036],"min":[-0.55765980482101,-0.64716237783432,-0.08348719775677],"type":"VEC3"},{"bufferView":3,"byteOffset":0,"componentType":5126,"count":5132,"type":"VEC3"},{"bufferView":4,"byteOffset":0,"componentType":5126,"count":5132,"type":"VEC2"},{"bufferView":5,"byteOffset":0,"componentType":5123,"count":6,"type":"SCALAR"},{"bufferView":6,"byteOffset":0,"componentType":5126,"count":4,"max":[0.00499999988824129,0.00499999988824129,0],"min":[-0.00499999988824,-0.00499999988824,0],"type":"VEC3"},{"bufferView":7,"byteOffset":0,"componentType":5126,"count":4,"type":"VEC3"},{"bufferView":8,"byteOffset":0,"componentType":5126,"count":4,"type":"VEC2"}],"animations":[{"channels":[],"name":"Take 001","samplers":[]}],"asset":{"generator":"FBX2glTF v0.13.1","version":"2.0"},"bufferViews":[{"buffer":0,"byteLength":4,"byteOffset":0},{"buffer":0,"byteLength":57264,"byteOffset":4,"target":34963},{"buffer":0,"byteLength":61584,"byteOffset":57268,"target":34962},{"buffer":0,"byteLength":61584,"byteOffset":118852,"target":34962},{"buffer":0,"byteLength":41056,"byteOffset":180436,"target":34962},{"buffer":0,"byteLength":12,"byteOffset":221492,"target":34963},{"buffer":0,"byteLength":48,"byteOffset":221504,"target":34962},{"buffer":0,"byteLength":48,"byteOffset":221552,"target":34962},{"buffer":0,"byteLength":32,"byteOffset":221600,"target":34962}],"buffers":[{"byteLength":221632,"uri":"SIGN_cheater.bin"}],"images":[{"name":"cheater","uri":"cheater.png"},{"name":"TEXTURE_woodensign_base_cheater","uri":"../textures/Resources/wooden sign texture/TEXTURE_woodensign_base_cheater.png"}],"materials":[{"alphaMode":"BLEND","doubleSided":false,"extras":{"fromFBX":{"isTruePBR":false,"shadingModel":"Lambert"}},"name":"cheater","pbrMetallicRoughness":{"baseColorFactor":[0.800000011920929,0.800000011920929,0.800000011920929,0],"baseColorTexture":{"index":0,"texCoord":0},"metallicFactor":0.200000002980232,"roughnessFactor":0.800000011920929}},{"alphaMode":"OPAQUE","doubleSided":false,"extras":{"fromFBX":{"isTruePBR":false,"shadingModel":"Phong"}},"name":"plank_HP11","pbrMetallicRoughness":{"baseColorFactor":[1,1,1,1],"baseColorTexture":{"index":1,"texCoord":0},"metallicFactor":0.400000005960464,"roughnessFactor":0.70710676908493}}],"meshes":[{"name":"wooden_sign_cheater","primitives":[{"attributes":{"NORMAL":3,"POSITION":2,"TEXCOORD_0":4},"indices":1,"material":1,"mode":4}]},{"name":"words_cheater","primitives":[{"attributes":{"NORMAL":7,"POSITION":6,"TEXCOORD_0":8},"indices":5,"material":0,"mode":4}]}],"nodes":[{"children":[1,2],"name":"wooden_sign_cheater_3","rotation":[0,0,0,1],"scale":[1,1,1],"translation":[0,0,0]},{"mesh":1,"name":"words_cheater","rotation":[0,-0.01300506200641,0,0.999915421009064],"scale":[83.4858779907227,36.5633544921875,83.4858779907227],"translation":[-0.01296687684953,0.268803417682648,0.0233547128736973]},{"mesh":0,"name":"wooden_sign_cheater","rotation":[0,0,0,1],"scale":[1,1,1],"translation":[0,0,0]}],"samplers":[{}],"scene":0,"scenes":[{"name":"Root Scene","nodes":[0]}],"textures":[{"name":"file9","sampler":0,"source":0},{"name":"file10","sampler":0,"source":1}]}