{
	"asset":{
		"generator":"Khronos glTF Blender I/O v3.6.28",
		"version":"2.0"
	},
	"scene":0,
	"scenes":[
		{
			"name":"Scene",
			"nodes":[
				0,
				1,
				2,
				3
			]
		}
	],
	"nodes":[
		{
			"mesh":0,
			"name":"Curve.001",
			"scale":[
				1180,
				1180,
				1180
			],
			"translation":[
				0.6232733130455017,
				0,
				-0.3657296895980835
			]
		},
		{
			"mesh":1,
			"name":"Curve.002",
			"scale":[
				1180,
				1180,
				1180
			],
			"translation":[
				1.8780401945114136,
				0,
				-0.3657296895980835
			]
		},
		{
			"mesh":2,
			"name":"Curve.003",
			"scale":[
				1180,
				1180,
				1180
			],
			"translation":[
				3.1781601905822754,
				0,
				-0.4805183410644531
			]
		},
		{
			"mesh":3,
			"name":"Curve.004",
			"scale":[
				1180,
				1180,
				1180
			],
			"translation":[
				3.8109426498413086,
				0,
				-0.365690141916275
			]
		}
	],
	"materials":[
		{
			"doubleSided":true,
			"name":"SVGMat.001",
			"pbrMetallicRoughness":{
				"baseColorFactor":[
					1,
					1,
					1,
					1
				],
				"metallicFactor":0,
				"roughnessFactor":0.4000000059604645
			}
		}
	],
	"meshes":[
		{
			"name":"Curve.001",
			"primitives":[
				{
					"attributes":{
						"POSITION":0,
						"NORMAL":1,
						"TEXCOORD_0":2
					},
					"indices":3,
					"material":0
				}
			]
		},
		{
			"name":"Curve.002",
			"primitives":[
				{
					"attributes":{
						"POSITION":4,
						"NORMAL":5,
						"TEXCOORD_0":6
					},
					"indices":7,
					"material":0
				}
			]
		},
		{
			"name":"Curve.003",
			"primitives":[
				{
					"attributes":{
						"POSITION":8,
						"NORMAL":9,
						"TEXCOORD_0":10
					},
					"indices":11,
					"material":0
				}
			]
		},
		{
			"name":"Curve.004",
			"primitives":[
				{
					"attributes":{
						"POSITION":12,
						"NORMAL":13,
						"TEXCOORD_0":14
					},
					"indices":15,
					"material":0
				}
			]
		}
	],
	"accessors":[
		{
			"bufferView":0,
			"componentType":5126,
			"count":77,
			"max":[
				0.0002442593686282635,
				0,
				0.001114431768655777
			],
			"min":[
				-0.0002442593686282635,
				0,
				-0.001114431768655777
			],
			"type":"VEC3"
		},
		{
			"bufferView":1,
			"componentType":5126,
			"count":77,
			"type":"VEC3"
		},
		{
			"bufferView":2,
			"componentType":5126,
			"count":77,
			"type":"VEC2"
		},
		{
			"bufferView":3,
			"componentType":5123,
			"count":216,
			"type":"SCALAR"
		},
		{
			"bufferView":4,
			"componentType":5126,
			"count":189,
			"max":[
				0.0005647726356983185,
				0,
				0.0005844878032803535
			],
			"min":[
				-0.0005647726356983185,
				0,
				-0.0005844878032803535
			],
			"type":"VEC3"
		},
		{
			"bufferView":5,
			"componentType":5126,
			"count":189,
			"type":"VEC3"
		},
		{
			"bufferView":6,
			"componentType":5126,
			"count":189,
			"type":"VEC2"
		},
		{
			"bufferView":7,
			"componentType":5123,
			"count":555,
			"type":"SCALAR"
		},
		{
			"bufferView":8,
			"componentType":5126,
			"count":123,
			"max":[
				0.00027525704354047775,
				0,
				0.00040721986442804337
			],
			"min":[
				-0.00027525704354047775,
				0,
				-0.00040721986442804337
			],
			"type":"VEC3"
		},
		{
			"bufferView":9,
			"componentType":5126,
			"count":123,
			"type":"VEC3"
		},
		{
			"bufferView":10,
			"componentType":5126,
			"count":123,
			"type":"VEC2"
		},
		{
			"bufferView":11,
			"componentType":5123,
			"count":360,
			"type":"SCALAR"
		},
		{
			"bufferView":12,
			"componentType":5126,
			"count":96,
			"max":[
				0.00015436718240380287,
				0,
				0.0006198175251483917
			],
			"min":[
				-0.00015436718240380287,
				0,
				-0.0006198175251483917
			],
			"type":"VEC3"
		},
		{
			"bufferView":13,
			"componentType":5126,
			"count":96,
			"type":"VEC3"
		},
		{
			"bufferView":14,
			"componentType":5126,
			"count":96,
			"type":"VEC2"
		},
		{
			"bufferView":15,
			"componentType":5123,
			"count":282,
			"type":"SCALAR"
		}
	],
	"bufferViews":[
		{
			"buffer":0,
			"byteLength":924,
			"byteOffset":0,
			"target":34962
		},
		{
			"buffer":0,
			"byteLength":924,
			"byteOffset":924,
			"target":34962
		},
		{
			"buffer":0,
			"byteLength":616,
			"byteOffset":1848,
			"target":34962
		},
		{
			"buffer":0,
			"byteLength":432,
			"byteOffset":2464,
			"target":34963
		},
		{
			"buffer":0,
			"byteLength":2268,
			"byteOffset":2896,
			"target":34962
		},
		{
			"buffer":0,
			"byteLength":2268,
			"byteOffset":5164,
			"target":34962
		},
		{
			"buffer":0,
			"byteLength":1512,
			"byteOffset":7432,
			"target":34962
		},
		{
			"buffer":0,
			"byteLength":1110,
			"byteOffset":8944,
			"target":34963
		},
		{
			"buffer":0,
			"byteLength":1476,
			"byteOffset":10056,
			"target":34962
		},
		{
			"buffer":0,
			"byteLength":1476,
			"byteOffset":11532,
			"target":34962
		},
		{
			"buffer":0,
			"byteLength":984,
			"byteOffset":13008,
			"target":34962
		},
		{
			"buffer":0,
			"byteLength":720,
			"byteOffset":13992,
			"target":34963
		},
		{
			"buffer":0,
			"byteLength":1152,
			"byteOffset":14712,
			"target":34962
		},
		{
			"buffer":0,
			"byteLength":1152,
			"byteOffset":15864,
			"target":34962
		},
		{
			"buffer":0,
			"byteLength":768,
			"byteOffset":17016,
			"target":34962
		},
		{
			"buffer":0,
			"byteLength":564,
			"byteOffset":17784,
			"target":34963
		}
	],
	"buffers":[
		{
			"byteLength":18348,
			"uri":"data:application/octet-stream;base64,"
		}
	]
}
