{"accessors":[{"bufferView":0,"byteOffset":0,"componentType":5126,"count":2,"max":[0.0416666679084301],"min":[0],"type":"SCALAR"},{"bufferView":1,"byteOffset":0,"componentType":5123,"count":138,"type":"SCALAR"},{"bufferView":2,"byteOffset":0,"componentType":5126,"count":53,"max":[0.010000029578805,0.00022841560712549,0],"min":[-0.00000002145767,-0.00022839468147,0],"type":"VEC3"},{"bufferView":3,"byteOffset":0,"componentType":5126,"count":53,"type":"VEC3"}],"animations":[{"channels":[],"name":"no_curve.001|no_curve.001Action","samplers":[]}],"asset":{"generator":"FBX2glTF v0.13.1","version":"2.0"},"bufferViews":[{"buffer":0,"byteLength":8,"byteOffset":0},{"buffer":0,"byteLength":276,"byteOffset":8,"target":34963},{"buffer":0,"byteLength":636,"byteOffset":284,"target":34962},{"buffer":0,"byteLength":636,"byteOffset":920,"target":34962}],"buffers":[{"byteLength":1556,"uri":"flatArrowShaftMesh.bin"}],"materials":[{"alphaMode":"OPAQUE","doubleSided":false,"extras":{"fromFBX":{"isTruePBR":false,"shadingModel":"Phong"}},"name":"color2","pbrMetallicRoughness":{"baseColorFactor":[0.952941179275513,0.949019610881805,0.941176474094391,1],"metallicFactor":0.400000005960464,"roughnessFactor":0.272165536880493}}],"meshes":[{"name":"no_curve.001","primitives":[{"attributes":{"NORMAL":3,"POSITION":2},"indices":1,"material":0,"mode":4}]}],"nodes":[{"mesh":0,"name":"no_curve.001","rotation":[-0.70710682868957,0,0,0.707106709480286],"scale":[100,100,100],"translation":[0,0,0]}],"samplers":[{}],"scene":0,"scenes":[{"name":"Root Scene","nodes":[0]}]}